<svg xmlns="http://www.w3.org/2000/svg" version="1.1" xmlns:xlink="http://www.w3.org/1999/xlink" xmlns:svgjs="http://svgjs.dev/svgjs" width="128" height="128" viewBox="0 0 128 128"><g transform="matrix(0.8046875,0,0,0.8046875,12.765931966111566,18.20375374797954)"><svg viewBox="0 0 95 85" data-background-color="#fafafa" preserveAspectRatio="xMidYMid meet" height="114" width="128" xmlns="http://www.w3.org/2000/svg" xmlns:xlink="http://www.w3.org/1999/xlink"><g id="tight-bounds" transform="matrix(1,0,0,1,-0.2404805228007092,-0.018818797759308836)"><svg viewBox="0 0 95.481 85.0383359449298" height="85.0383359449298" width="95.481"><g><svg viewBox="0 0 95.481 85.0383359449298" height="85.0383359449298" width="95.481"><g><svg viewBox="0 0 95.481 85.0383359449298" height="85.0383359449298" width="95.481"><g id="textblocktransform"><svg viewBox="0 0 95.481 85.0383359449298" height="85.0383359449298" width="95.481" id="textblock"><g><svg viewBox="0 0 95.481 85.0383359449298" height="85.0383359449298" width="95.481"><g><svg viewBox="0 0 95.481 85.0383359449298" height="85.0383359449298" width="95.481"><g><svg xmlns="http://www.w3.org/2000/svg" xmlns:xlink="http://www.w3.org/1999/xlink" version="1.1" x="0" y="0" viewBox="3.6009947047444157 8.677 92.79600922706547 82.64699999999999" enable-background="new 0 0 100 100" xml:space="preserve" height="85.0383359449298" width="95.481" class="icon-icon-0" data-fill-palette-color="accent" id="icon-0"><g fill="#f97316" data-fill-palette-color="accent"><path d="M96.349 27.217A4.98 4.98 0 0 0 91.373 22.241H65.445V15.549A6.88 6.88 0 0 0 58.573 8.677H41.427A6.88 6.88 0 0 0 34.555 15.549V22.241H8.629A4.98 4.98 0 0 0 3.651 27.212L3.601 50.882A2 2 0 0 0 4.728 52.686 78 78 0 0 0 7.963 54.14V86.348A4.98 4.98 0 0 0 12.939 91.324H87.059A4.98 4.98 0 0 0 92.035 86.348V53.658A70 70 0 0 0 95.33 52.04 2 2 0 0 0 96.397 50.267zM38.555 15.549A2.875 2.875 0 0 1 41.427 12.677H58.573C60.13 12.677 61.445 13.992 61.445 15.549V22.241H38.555zM88.036 86.348C88.036 86.868 87.58 87.324 87.06 87.324H12.94A0.99 0.99 0 0 1 11.964 86.348V55.727C20.67 58.924 30.397 60.842 41.004 61.43V64.205A3.653 3.653 0 0 0 44.653 67.854H55.348A3.653 3.653 0 0 0 58.995 64.205V61.4C69.74 60.747 79.469 58.721 88.035 55.361V86.348zM45.004 63.854V57.218H54.996V63.854zM58.996 57.378V56.87A3.653 3.653 0 0 0 55.349 53.219H44.653A3.654 3.654 0 0 0 41.004 56.87V57.421C28.476 56.703 17.245 54.092 7.605 49.622L7.652 27.217A0.99 0.99 0 0 1 8.63 26.241H91.374A0.99 0.99 0 0 1 92.35 27.22L92.396 49.051C82.987 53.791 71.754 56.576 58.996 57.378" fill="#f97316" data-fill-palette-color="accent"></path></g></svg></g></svg></g></svg></g></svg></g></svg></g></svg></g><defs></defs></svg><rect width="95.481" height="85.0383359449298" fill="none" stroke="none" visibility="hidden"></rect></g></svg></g></svg>