<svg xmlns="http://www.w3.org/2000/svg" version="1.1" xmlns:xlink="http://www.w3.org/1999/xlink" xmlns:svgjs="http://svgjs.dev/svgjs" width="164" height="50" viewBox="0 0 2000 515"><g transform="matrix(1,0,0,1,-1.2121212121212466,0.28711654471266)"><svg viewBox="0 0 396 102" data-background-color="#fafafa" preserveAspectRatio="xMidYMid meet" height="515" width="2000" xmlns="http://www.w3.org/2000/svg" xmlns:xlink="http://www.w3.org/1999/xlink"><g id="tight-bounds" transform="matrix(1,0,0,1,0.2400000000000091,-0.05686580108871908)"><svg viewBox="0 0 395.52 102.11372606033166" height="102.11372606033166" width="395.52"><g><svg viewBox="0 0 579.0741914159869 149.50299188627667" height="102.11372606033166" width="395.52"><g transform="matrix(1,0,0,1,183.5541914159869,2.6323488682340184)"><svg viewBox="0 0 395.52 144.23829414980864" height="144.23829414980864" width="395.52"><g id="textblocktransform"><svg viewBox="0 0 395.52 144.23829414980864" height="144.23829414980864" width="395.52" id="textblock"><g><svg viewBox="0 0 395.52 144.23829414980864" height="144.23829414980864" width="395.52"><g transform="matrix(1,0,0,1,0,0)"><svg width="395.52" viewBox="0.29 -38.16 133.95000000000002 48.849999999999994" height="144.23829414980864" data-palette-color="#f97316"><path d="M10.94-10.6L10.94-32.59Q12.45-32.47 13.13-32.47L13.13-32.47 15.04-32.47Q16.24-32.47 17.41-32.67L17.41-32.67 17.41-10.79Q17.41-5.42 14.55-2.34L14.55-2.34Q11.84 0.61 7.23 0.61L7.23 0.61Q4.05 0.61 1.9-0.66L1.9-0.66Q1.1-1.12 0.29-1.78L0.29-1.78 0.29-8.84 0.46-8.89Q1.49-7.28 2.87-6.25 4.25-5.22 6.3-5.22L6.3-5.22Q10.94-5.22 10.94-10.6L10.94-10.6ZM22.73-12.62L22.73-12.62Q22.73-15.31 23.64-17.76 24.56-20.21 26.27-22.05L26.27-22.05Q30-26 35.96-26L35.96-26Q41.89-26 45.38-22.27L45.38-22.27Q48.73-18.7 48.73-13.01L48.73-13.01Q48.73-7.32 45.29-3.59L45.29-3.59Q41.65 0.37 35.64 0.37L35.64 0.37Q29.44 0.37 25.93-3.52L25.93-3.52Q22.73-7.06 22.73-12.62ZM28.66-12.77L28.66-12.77Q28.66-11.23 29.17-9.79 29.68-8.35 30.64-7.32L30.64-7.32Q32.66-5.1 35.96-5.1L35.96-5.1Q39.01-5.1 40.77-7.28L40.77-7.28Q42.48-9.38 42.48-12.74L42.48-12.74Q42.48-16.16 40.72-18.26L40.72-18.26Q38.84-20.51 35.57-20.51L35.57-20.51Q32.25-20.51 30.37-18.12L30.37-18.12Q28.66-15.92 28.66-12.77ZM59.91-36.33L59.91-24.58Q62.64-26 65.5-26 68.35-26 70.42-25.11 72.48-24.22 74.04-22.56L74.04-22.56Q77.44-18.87 77.44-13.23L77.44-13.23Q77.44-7.06 73.75-3.27L73.75-3.27Q70.21 0.37 64.94 0.37L64.94 0.37Q60.3 0.37 57.29-2.05L57.29-2.05Q53.93-4.79 53.93-9.59L53.93-9.59 53.93-36.33 59.91-36.33ZM59.91-18.41L59.91-9.67Q59.91-5.37 65.25-5.37L65.25-5.37Q67.87-5.37 69.65-7.67L69.65-7.67Q71.45-10.01 71.45-13.5L71.45-13.5Q71.45-17.02 69.55-18.8L69.55-18.8Q67.84-20.39 64.96-20.39L64.96-20.39Q63.23-20.39 61.13-19.21L61.13-19.21Q60.47-18.85 59.91-18.41L59.91-18.41ZM87.49-28.83L82-32.79Q83.95-35.84 86.08-38.16L86.08-38.16 91.33-34.03Q90.28-32.74 89.37-31.49L89.37-31.49Q89.37-31.49 87.49-28.83L87.49-28.83ZM88.42-25.51L88.42-2.73Q88.42-0.63 88.52 0L88.52 0 82.32 0 82.32-25.51 88.42-25.51ZM101.41-22.71L107.49-22.71Q107.29-22 107.29-19.14L107.29-19.14 107.29-16.99 101.41-16.99 101.41 0 95.42 0 95.42-16.99 91.84-16.99Q91.86-18.6 91.88-19.85L91.88-19.85 91.93-22.46 91.93-22.71 95.42-22.71 95.42-24.22Q95.42-30.08 98.16-33.64L98.16-33.64Q101.02-37.33 106.02-37.33L106.02-37.33Q108.14-37.33 108.83-37.04L108.83-37.04 108.85-30.91 108.8-30.79Q107.88-31.71 106.45-31.71 105.02-31.71 104.14-31.24 103.26-30.76 102.65-29.88L102.65-29.88Q101.41-28.13 101.41-25.07L101.41-25.07 101.41-22.71ZM115.95 10.69L109.66 8.5 111.27 7.2Q114.9 4.25 117.3-1.51L117.3-1.51 118.42-4.22 109.07-25.51 115.91-25.51 121.76-10.77 127.21-25.51 134.24-25.51Q132.97-23.75 131.14-18.97L131.14-18.97 127.48-9.91Q120.13 7.37 115.95 10.69L115.95 10.69Z" opacity="1" transform="matrix(1,0,0,1,0,0)" fill="#f97316" class="wordmark-text-0" data-fill-palette-color="primary" id="text-0"></path></svg></g></svg></g></svg></g></svg></g><g><svg viewBox="0 0 149.50299188627667 149.50299188627667" height="149.50299188627667" width="149.50299188627667"><g><svg></svg></g><g id="icon-0"><svg viewBox="0 0 149.50299188627667 149.50299188627667" height="149.50299188627667" width="149.50299188627667"><g><path transform="scale(1.49503,1.49503)" d="M30 100c-16.569 0-30-13.431-30-30v-40c0-16.569 13.431-30 30-30h40c16.569 0 30 13.431 30 30v40c0 16.569-13.431 30-30 30z" fill="#f97316" fill-rule="nonzero" stroke="none" stroke-width="1" stroke-linecap="butt" stroke-linejoin="miter" stroke-miterlimit="10" stroke-dasharray="" stroke-dashoffset="0" font-family="none" font-weight="none" font-size="none" text-anchor="none" style="mix-blend-mode: normal" data-fill-palette-color="accent"></path></g><g transform="matrix(1,0,0,1,29.900598377255342,34.80589739851488)"><svg viewBox="0 0 89.70179513176599 79.89119708924692" height="79.89119708924692" width="89.70179513176599"><g><svg xmlns="http://www.w3.org/2000/svg" xmlns:xlink="http://www.w3.org/1999/xlink" version="1.1" x="0" y="0" viewBox="3.6009947047444157 8.677 92.79600922706547 82.64699999999999" enable-background="new 0 0 100 100" xml:space="preserve" height="79.89119708924692" width="89.70179513176599" class="icon-dxe-0" data-fill-palette-color="quaternary" id="dxe-0"><g fill="#fafafa" data-fill-palette-color="quaternary"><path d="M96.349 27.217A4.98 4.98 0 0 0 91.373 22.241H65.445V15.549A6.88 6.88 0 0 0 58.573 8.677H41.427A6.88 6.88 0 0 0 34.555 15.549V22.241H8.629A4.98 4.98 0 0 0 3.651 27.212L3.601 50.882A2 2 0 0 0 4.728 52.686 78 78 0 0 0 7.963 54.14V86.348A4.98 4.98 0 0 0 12.939 91.324H87.059A4.98 4.98 0 0 0 92.035 86.348V53.658A70 70 0 0 0 95.33 52.04 2 2 0 0 0 96.397 50.267zM38.555 15.549A2.875 2.875 0 0 1 41.427 12.677H58.573C60.13 12.677 61.445 13.992 61.445 15.549V22.241H38.555zM88.036 86.348C88.036 86.868 87.58 87.324 87.06 87.324H12.94A0.99 0.99 0 0 1 11.964 86.348V55.727C20.67 58.924 30.397 60.842 41.004 61.43V64.205A3.653 3.653 0 0 0 44.653 67.854H55.348A3.653 3.653 0 0 0 58.995 64.205V61.4C69.74 60.747 79.469 58.721 88.035 55.361V86.348zM45.004 63.854V57.218H54.996V63.854zM58.996 57.378V56.87A3.653 3.653 0 0 0 55.349 53.219H44.653A3.654 3.654 0 0 0 41.004 56.87V57.421C28.476 56.703 17.245 54.092 7.605 49.622L7.652 27.217A0.99 0.99 0 0 1 8.63 26.241H91.374A0.99 0.99 0 0 1 92.35 27.22L92.396 49.051C82.987 53.791 71.754 56.576 58.996 57.378" fill="#fafafa" data-fill-palette-color="quaternary"></path></g></svg></g></svg></g></svg></g></svg></g></svg></g><defs></defs></svg><rect width="395.52" height="102.11372606033166" fill="none" stroke="none" visibility="hidden"></rect></g></svg></g></svg>